[img]http://img9.imageshack.us/img9/3646/redtails.jpg[/img]
[code]
Red Tails 2012 CAM READNFO XViD AC3-26K

Imdb: 
http://www.imdb.com/title/tt0485985/

Plot:
A crew of African American pilots in the Tuskegee training program, having faced segregation while 

kept mostly on the ground during World War II, are called into duty under the guidance of Col. A.J. 

Bullard.

Sources:
VIDEO - Hos DVDR iso
AUDIO - Hos DVDR iso

Notes:
READNFO the cam had loadz of movement so cropped out the black borders..
so take it or leave it.. not bad for first cam!

Greetz:
Xtreme 

Encode|FYA|ILLUMANTI|CM8|RX|VISION|HDSCENE|NIGHTMAREZ|xTriLL|DTRG|CRYS|REMIXHD|BIDA|RX|REFILL|INSPiRAL

|SIC|ZOMBIESZ|HOPE|Anonymous|GooN
To all the people who have helped me :P you know who you are

Anything to offer email us @: 26k@hushmail.me

Video
ID                                       : 0
Format                                   : MPEG-4 Visual
Format profile                           : Advanced Simple@L5
Format settings, BVOP                    : 2
Format settings, QPel                    : No
Format settings, GMC                     : No warppoints
Format settings, Matrix                  : Default (H.263)
Codec ID                                 : XVID
Codec ID/Hint                            : XviD
Duration                                 : 1h 57mn
Bit rate                                 : 1 649 Kbps
Width                                    : 720 pixels
Height                                   : 320 pixels
Display aspect ratio                     : 2.25:1
Frame rate                               : 25.000 fps
Color space                              : YUV
Chroma subsampling                       : 4:2:0
Bit depth                                : 8 bits
Scan type                                : Progressive
Compression mode                         : Lossy
Bits/(Pixel*Frame)                       : 0.286
Stream size                              : 1.36 GiB (89%)
Writing library                          : XviD 63

Audio
ID                                       : 1
Format                                   : AC-3
Format/Info                              : Audio Coding 3
Mode extension                           : CM (complete main)
Codec ID                                 : 2000
Duration                                 : 1h 57mn
Bit rate mode                            : Constant
Bit rate                                 : 192 Kbps
Channel(s)                               : 2 channels
Channel positions                        : Front: L R
Sampling rate                            : 48.0 KHz
Bit depth                                : 16 bits
Compression mode                         : Lossy
Stream size                              : 162 MiB (10%)
Alignment                                : Aligned on interleaves
Interleave, duration                     : 32 ms (0.80 video frame)

[/code]
Screens:
[img]http://img838.imageshack.us/img838/7152/vlcsnap2012020220h52m21.png[/img]
[img]http://img26.imageshack.us/img26/6612/vlcsnap2012020220h52m30.png[/img]
[img]http://img29.imageshack.us/img29/1402/vlcsnap2012020220h52m37.png[/img]
[img]http://img16.imageshack.us/img16/4647/vlcsnap2012020220h52m43.png[/img]
[img]http://img194.imageshack.us/img194/9449/vlcsnap2012020220h52m48.png[/img]

[img]http://img851.imageshack.us/img851/5503/26ks.jpg[/img]
Thank you smallz for banner!